# xmcd
#
# Track frame offsets: 
#        150
#        10940
#        22663
#        41371
#        57862
#        77834
#        91085
#        107997
#        123491
#        136074
#        153668
#
# Disc length: 2297 seconds
#
# Revision: 0
# Processed by: cddbd v1.5.2PL0 Copyright (c) Steve Scherf et al.
# Submitted via: ExactAudioCopyFreeDBPlugin 1.0
#
DISCID=7c08f70b
DTITLE=Hillbilly Jones - Ready To Fire
DYEAR=2006
DGENRE=Country
TTITLE0=Ridin' High
TTITLE1=Whiskey, Wild Women And Dynomite
TTITLE2=Texas Side Of Town
TTITLE3=In The Mood
TTITLE4=Remember
TTITLE5=Muhlenberg County
TTITLE6=Ready To Fire
TTITLE7=Workin' Man Blues
TTITLE8=Pink Cadillac
TTITLE9=Runaway Train
TTITLE10=Georgia Buck On A Fast Train
EXTD=
EXTT0=
EXTT1=
EXTT2=
EXTT3=
EXTT4=
EXTT5=
EXTT6=
EXTT7=
EXTT8=
EXTT9=
EXTT10=
PLAYORDER=
